<svg width="512" height="512" viewBox="0 0 512 512" fill="none" xmlns="http://www.w3.org/2000/svg">
<rect width="512" height="512" fill="#E5E5E5"/>
<path d="M0 0H512V512H0V0Z" fill="white"/>
<rect x="8" y="8" width="496" height="496" rx="112" fill="#043354" stroke="#FCF7F1" stroke-width="16"/>
<rect x="56" y="56" width="400" height="400" rx="88" fill="#043354" stroke="#FCF7F1" stroke-width="16"/>
<path d="M203.6 201C207.067 201 209.933 202.133 212.2 204.4C214.467 206.667 215.6 209.6 215.6 213.2V297.8C215.6 301.267 214.467 304.2 212.2 306.6C209.933 308.867 207.067 310 203.6 310C200.133 310 197.267 308.867 195 306.6C192.867 304.333 191.733 301.467 191.6 298C188.267 301.867 183.733 305.2 178 308C172.4 310.667 166.467 312 160.2 312C151 312 142.667 309.667 135.2 305C127.733 300.2 121.8 293.6 117.4 285.2C113.133 276.8 111 267.267 111 256.6C111 245.933 113.133 236.4 117.4 228C121.667 219.467 127.467 212.867 134.8 208.2C142.267 203.4 150.467 201 159.4 201C165.8 201 171.8 202.2 177.4 204.6C183 206.867 187.733 209.8 191.6 213.4V213.2C191.6 209.733 192.733 206.867 195 204.6C197.267 202.2 200.133 201 203.6 201ZM163.2 290C171.867 290 178.933 286.867 184.4 280.6C189.867 274.2 192.6 266.2 192.6 256.6C192.6 247 189.867 239 184.4 232.6C178.933 226.2 171.867 223 163.2 223C154.667 223 147.667 226.2 142.2 232.6C136.733 239 134 247 134 256.6C134 266.2 136.667 274.2 142 280.6C147.467 286.867 154.533 290 163.2 290Z" fill="#FCF7F1"/>
<path d="M365.009 201C378.209 201 387.343 205.067 392.409 213.2C397.476 221.2 400.009 232.333 400.009 246.6V297.8C400.009 301.267 398.876 304.2 396.609 306.6C394.343 308.867 391.476 310 388.009 310C384.543 310 381.676 308.867 379.409 306.6C377.143 304.2 376.009 301.267 376.009 297.8V246.6C376.009 239.267 374.543 233.533 371.609 229.4C368.809 225.133 363.809 223 356.609 223C349.143 223 343.276 225.267 339.009 229.8C334.876 234.2 332.809 239.8 332.809 246.6V297.8C332.809 301.267 331.676 304.2 329.409 306.6C327.143 308.867 324.276 310 320.809 310C317.343 310 314.476 308.867 312.209 306.6C309.943 304.2 308.809 301.267 308.809 297.8V246.6C308.809 239.267 307.343 233.533 304.409 229.4C301.609 225.133 296.609 223 289.409 223C281.943 223 276.076 225.267 271.809 229.8C267.676 234.2 265.609 239.8 265.609 246.6V297.8C265.609 301.267 264.476 304.2 262.209 306.6C259.943 308.867 257.076 310 253.609 310C250.143 310 247.276 308.867 245.009 306.6C242.743 304.2 241.609 301.267 241.609 297.8V215.2C241.609 211.733 242.743 208.867 245.009 206.6C247.276 204.2 250.143 203 253.609 203C257.076 203 259.943 204.2 262.209 206.6C264.476 208.867 265.609 211.733 265.609 215.2V218.4C269.209 213.6 273.743 209.533 279.209 206.2C284.809 202.733 291.009 201 297.809 201C314.609 201 325.343 208.333 330.009 223C333.076 217.4 337.676 212.333 343.809 207.8C350.076 203.267 357.143 201 365.009 201Z" fill="#FCF7F1"/>
</svg>
